<svg width="27" height="24" viewBox="0 0 27 24" fill="none" xmlns="http://www.w3.org/2000/svg">
<path d="M7.61434 5.24916H2.91662C1.30869 5.24916 0 6.53127 0 8.10698V13.3931C0 14.9757 1.30823 16.2637 2.91662 16.2637H7.60141C7.85632 16.2637 8.07659 16.0469 8.07659 15.796V5.70365C8.07613 5.45277 7.86925 5.24916 7.61434 5.24916ZM19.7685 0.0793457C18.9465 0.0793457 18.2774 0.743808 18.2774 1.56007V19.9519C18.2774 20.7681 18.9465 21.4326 19.7685 21.4326H19.7814C20.6038 21.4326 21.273 20.7681 21.273 19.9519V1.56007C21.2734 0.743808 20.6038 0.0793457 19.7685 0.0793457ZM26.5382 10.3017H23.4895C23.2346 10.3017 23.0277 10.5053 23.0277 10.7562C23.0277 11.0071 23.2346 11.2107 23.4895 11.2107H26.5382C26.7931 11.2107 27 11.0071 27 10.7562C27 10.5053 26.7936 10.3017 26.5382 10.3017ZM22.6851 9.19776C22.8033 9.19776 22.9215 9.15322 23.012 9.06459L25.163 6.94713C25.3436 6.76942 25.3431 6.48173 25.163 6.30403C24.9829 6.12632 24.6902 6.12678 24.5096 6.30403L22.3586 8.42149C22.1781 8.59919 22.1785 8.88689 22.3586 9.06459C22.4487 9.15322 22.5669 9.19776 22.6851 9.19776ZM22.946 12.4219C22.7654 12.2442 22.4731 12.2442 22.2926 12.4219C22.1125 12.5996 22.1125 12.8873 22.2926 13.065L24.4436 15.182C24.5336 15.2706 24.6523 15.3147 24.7705 15.3147C24.8887 15.3147 25.0069 15.2706 25.0975 15.182C25.2775 15.0043 25.2775 14.7166 25.0975 14.5389L22.946 12.4219ZM3.74737 17.1722V21.0299C3.74737 22.197 4.7185 23.1469 5.91175 23.1469H7.60095C7.85586 23.1469 8.06273 22.9433 8.06273 22.6924V17.089C7.91727 17.1395 7.7635 17.1722 7.60095 17.1722H3.74737ZM8.91796 5.25961C8.96737 5.39959 8.99969 5.54776 8.99969 5.7041V15.7965C8.99969 15.9574 8.96644 16.1092 8.91426 16.2528C12.2885 16.291 15.7482 16.8223 17.3533 18.1248V3.39939C16.7189 3.91387 15.7597 4.33109 14.4774 4.64605C12.5176 5.12781 10.2955 5.24098 8.91796 5.25961Z" fill="#333333"/>
</svg>
