<svg width="27" height="24" viewBox="0 0 27 24" fill="none" xmlns="http://www.w3.org/2000/svg">
<path d="M13.5 22.7585C13.8571 22.5021 15.9612 20.9756 18.3743 18.9035C20.9368 16.7031 23.7724 13.9505 25.276 11.4807L25.277 11.4791L25.2802 11.4733L25.2856 11.4642C25.9161 10.4124 26.25 9.20358 26.25 7.96627C26.25 4.22363 23.2225 1.18481 19.5118 1.18481C17.3626 1.18481 15.3651 2.21175 14.1033 3.92018L13.5 4.73699L12.8967 3.92018C11.6349 2.21174 9.63768 1.18481 7.48819 1.18481C3.77755 1.18481 0.75 4.22363 0.75 7.96627C0.75 9.20358 1.08394 10.4124 1.71437 11.4642L1.07107 11.8498M13.5 22.7585L1.72502 11.4822L1.72467 11.4816C1.7228 11.4784 1.71806 11.4703 1.71271 11.4615L1.07107 11.8498M13.5 22.7585C13.1423 22.5015 11.0386 20.9752 8.62596 18.9035C6.0645 16.704 3.23005 13.9527 1.72586 11.4837M13.5 22.7585L1.72586 11.4837M1.07107 11.8498L1.08342 11.8707L14.1033 3.02901L13.5 3.47459L12.8967 3.02901C12.9341 2.97834 12.9721 2.92815 13.0106 2.87846C11.61 1.34051 9.61676 0.434814 7.48819 0.434814C3.35927 0.434814 0 3.81349 0 7.96627C0 9.33852 0.370374 10.6808 1.07107 11.8498ZM1.72586 11.4837C1.72586 11.4837 1.72585 11.4837 1.72585 11.4837L1.72586 11.4837ZM13.4831 22.7704C13.4832 22.7704 13.4833 22.7704 13.4834 22.7704H13.4831ZM13.5431 22.7894L13.5428 22.7892L13.5431 22.7894ZM25.2873 11.4627L25.2861 11.4645L25.2873 11.4627Z" fill="#848484" stroke="#848484" stroke-width="1.5"/>
</svg>
