<svg width="24" height="25" viewBox="0 0 24 25" fill="none" xmlns="http://www.w3.org/2000/svg">
<path d="M14.9955 23.0175L14.9952 23.0176C14.0258 23.3129 13.0183 23.4627 12.0003 23.4627C6.2083 23.4627 1.45996 18.6122 1.45996 12.6079C1.45996 6.60373 6.2083 1.75317 12.0003 1.75317C17.7923 1.75317 22.5406 6.60373 22.5406 12.6079C22.5406 15.8246 21.1662 18.853 18.777 20.9211L18.777 20.9211C18.4022 21.2455 18.2997 21.7801 18.5128 22.2181L19.3291 23.8964L15.551 23.0001L15.5483 22.9995C15.4698 22.9812 15.3883 22.9715 15.3054 22.9715C15.2014 22.9715 15.097 22.9866 14.9955 23.0175Z" fill="#848484" stroke="#848484" stroke-width="1.5"/>
<circle cx="7.5" cy="12.5" r="1.5" fill="white"/>
<circle cx="11.5" cy="12.5" r="1.5" fill="white"/>
<circle cx="15.5" cy="12.5" r="1.5" fill="white"/>
</svg>
